# xmcd
# 
# Track frame offsets:
#     150
#     13644
#     25178
#     36373
#     46156
#     58963
#     74210
#     84890
#     97733
#     114184
#     128269
#     139415
#     153265
#     167785
#     187100
#     201664
#     211260
#     226969
#     240667
#     265651
# 
# Disc length: 3704
# 
# Revision: 1
# Processed by: cddbd v1.5.2PL0 Copyright (c) Steve Scherf et al.
# Submitted via: BonkEnc v1.0.8
# 
DISCID=120e7614
DTITLE=Various Artist - Pure Easy - CD 1
DYEAR=2007
DGENRE=Pop
TTITLE0=In the cool cool cool of the evening  - Dean Martin
TTITLE1=Hello Dolly - Bing Crosby
TTITLE2=Fly me to the moon - Dinah Washington
TTITLE3=Mad about the boy - Julie London
TTITLE4=It had to be you - Kay Starr
TTITLE5=Can´t take my eyes off you - Al Martino
TTITLE6=Teach me tiger - April Stevens
TTITLE7=The more I see you - Dick Haymes
TTITLE8=Unchained Melody - Frankie Vaughan
TTITLE9=No other lover - Ronnie Hilton
TTITLE10=Misty Blue - Ella Fitzgerald
TTITLE11=The girl from Ipanema - Eartha Kitt
TTITLE12=Willow weep for me - Nina Simone
TTITLE13=She (Theme from TV Series The seven faces of women) - Pepa Jaramillo
TTITLE14=Night and day - Fred Astaire
TTITLE15=Embraceable you - Chet Baker
TTITLE16=I just want to make love to you - Lou Rawis/Junior Wells
TTITLE17=Guantanamera - Geoff Love and his Orchestra
TTITLE18=I got it bad (and that aint good) - Louis Armstrong and Duke Ellington
TTITLE19=Till there was you - Billy May
EXTD=EMI Records - RicSen 2010
EXTT0=
EXTT1=
EXTT2=
EXTT3=
EXTT4=
EXTT5=
EXTT6=
EXTT7=
EXTT8=
EXTT9=
EXTT10=
EXTT11=
EXTT12=
EXTT13=
EXTT14=
EXTT15=
EXTT16=
EXTT17=
EXTT18=
EXTT19=
PLAYORDER=
